<?xml version="1.0" encoding="utf-8"?>
<!-- Generator: Adobe Illustrator 19.2.1, SVG Export Plug-In . SVG Version: 6.00 Build 0)  -->
<svg version="1.1" id="Layer_1" xmlns="http://www.w3.org/2000/svg" xmlns:xlink="http://www.w3.org/1999/xlink" x="0px" y="0px"
	 viewBox="0 0 960 496.4" style="enable-background:new 0 0 960 496.4;" xml:space="preserve">
<style type="text/css">
	.st0{fill:#BEDFC2;}
	.st1{fill:#F7F3E5;}
	.st2{fill:#5BB9A9;}
	.st3{fill:#D8DADB;}
	.st4{fill:#E8E9EA;}
	.st5{fill:#FFFFCC;}
	.st6{fill:#FF6666;}
	.st7{fill:#B58F43;}
	.st8{fill:#61523A;}
	.st9{fill:#4A2424;}
	.st10{fill:#603C3C;}
	.st11{fill:#9B7870;}
	.st12{fill:#A58681;}
	.st13{fill:#996633;}
	.st14{fill:#E73A50;}
	.st15{fill:#FF6633;}
	.st16{fill:#F49E9E;}
	.st17{fill:#F4C3C3;}
	.st18{fill:#AA8983;}
	.st19{fill:#623F3C;}
	.st20{fill:#542F2F;}
	.st21{fill:#6D4D4D;}
	.st22{fill:#EA5E5E;}
	.st23{fill:#EFACC5;}
	.st24{fill:#EE808B;}
	.st25{fill:#933249;}
	.st26{fill:#A9316C;}
	.st27{fill:#EFE9DF;}
	.st28{fill:#080101;}
	.st29{fill:#0A0707;}
	.st30{fill:#141212;}
	.st31{fill:#F46E6E;}
	.st32{fill:#E94646;}
	.st33{fill:#E52323;}
	.st34{fill:#E52354;}
	.st35{fill:#FF6699;}
	.st36{fill:#FD531F;}
	.st37{fill:#F46966;}
	.st38{fill:#FFAC38;}
	.st39{fill:#EEEEEF;}
	.st40{fill:#E4E4E4;}
	.st41{fill:#464646;}
	.st42{fill:#E4AC1B;}
	.st43{fill:#3C0D1F;stroke:#D15A7F;stroke-miterlimit:10;}
	.st44{fill:#B23F6A;}
	.st45{fill:#E8835D;}
	.st46{fill:#54A0D8;}
	.st47{fill:none;}
	.st48{fill:#F28888;}
	.st49{font-family:'LucidaHandwriting-Italic';}
	.st50{font-size:60px;}
</style>
<g>
	<rect x="1" class="st0" width="60" height="496.4"/>
	<rect x="61" class="st1" width="60" height="496.4"/>
	<rect x="121" class="st0" width="60" height="496.4"/>
	<rect x="181" class="st1" width="60" height="496.4"/>
	<rect x="241" class="st0" width="60" height="496.4"/>
	<rect x="301" class="st1" width="60" height="496.4"/>
	<rect x="361" class="st0" width="60" height="496.4"/>
	<rect x="421" class="st1" width="60" height="496.4"/>
	<rect x="481" class="st0" width="60" height="496.4"/>
	<rect x="541" class="st1" width="60" height="496.4"/>
	<rect x="601" class="st0" width="60" height="496.4"/>
	<rect x="661" class="st1" width="60" height="496.4"/>
	<rect x="721" class="st0" width="60" height="496.4"/>
	<rect x="781" class="st1" width="60" height="496.4"/>
	<rect x="841" class="st0" width="60" height="496.4"/>
	<rect x="901" class="st1" width="60" height="496.4"/>
</g>
<g>
	<path class="st2" d="M842.4,446.8H117.6V49.2c0-27.2,22-49.2,49.2-49.2h626.4c27.2,0,49.2,22,49.2,49.2V446.8z"/>
	<path class="st3" d="M790.4,379.3H169.6V99.4c0-27.2,22-49.2,49.2-49.2h522.4c27.2,0,49.2,22,49.2,49.2V379.3z"/>
	<g>
		<path class="st4" d="M223.5,116.7l448.7-55.3H229.6c-32.6,0-58.6,30.2-58.6,67.5v51.8C172,147.9,194.1,120.3,223.5,116.7z"/>
	</g>
	<g>
		<ellipse class="st5" cx="145.4" cy="365" rx="15.5" ry="16.2"/>
		<ellipse class="st5" cx="145.4" cy="317.3" rx="15.5" ry="16.2"/>
		<ellipse class="st5" cx="145.4" cy="269.6" rx="15.5" ry="16.2"/>
		<ellipse class="st5" cx="145.4" cy="221.9" rx="15.5" ry="16.2"/>
		<ellipse class="st5" cx="145.4" cy="174.2" rx="15.5" ry="16.2"/>
		<ellipse class="st5" cx="145.4" cy="126.5" rx="15.5" ry="16.2"/>
		<ellipse class="st5" cx="145.4" cy="78.8" rx="15.5" ry="16.2"/>
		<ellipse class="st5" cx="169.6" cy="39" rx="15.5" ry="16.2"/>
		<ellipse class="st5" cx="213.4" cy="27.5" rx="15.5" ry="16.2"/>
		<ellipse class="st5" cx="258" cy="27.5" rx="15.5" ry="16.2"/>
		<ellipse class="st5" cx="302.6" cy="27.5" rx="15.5" ry="16.2"/>
		<ellipse class="st5" cx="347.2" cy="27.5" rx="15.5" ry="16.2"/>
		<ellipse class="st5" cx="391.8" cy="27.5" rx="15.5" ry="16.2"/>
		<ellipse class="st5" cx="436.4" cy="27.5" rx="15.5" ry="16.2"/>
		<ellipse class="st5" cx="480.9" cy="27.5" rx="15.5" ry="16.2"/>
		<ellipse class="st5" cx="525.5" cy="27.5" rx="15.5" ry="16.2"/>
		<ellipse class="st5" cx="570.1" cy="27.5" rx="15.5" ry="16.2"/>
		<ellipse class="st5" cx="614.7" cy="27.5" rx="15.5" ry="16.2"/>
		<ellipse class="st5" cx="659.3" cy="27.5" rx="15.5" ry="16.2"/>
		<ellipse class="st5" cx="703.9" cy="27.5" rx="15.5" ry="16.2"/>
		<ellipse class="st5" cx="748.4" cy="27.5" rx="15.5" ry="16.2"/>
		<ellipse class="st5" cx="791.2" cy="39" rx="15.5" ry="16.2"/>
		<ellipse class="st5" cx="813" cy="78.8" rx="15.5" ry="16.2"/>
		<ellipse class="st5" cx="813" cy="126.5" rx="15.5" ry="16.2"/>
		<ellipse class="st5" cx="813" cy="174.2" rx="15.5" ry="16.2"/>
		<ellipse class="st5" cx="813" cy="221.9" rx="15.5" ry="16.2"/>
		<ellipse class="st5" cx="813" cy="269.6" rx="15.5" ry="16.2"/>
		<ellipse class="st5" cx="813" cy="317.3" rx="15.5" ry="16.2"/>
		<ellipse class="st5" cx="813" cy="365" rx="15.5" ry="16.2"/>
	</g>
</g>
<g>
	<path class="st6" d="M943.9,414.7H720.3v-74.2c0-8.8,7.1-16,16-16h191.6c8.8,0,16,7.1,16,16V414.7z"/>
	<g>
		<g>
			<path class="st7" d="M316.3,240.5l-8.7-0.9l2.1-20.8c0.2-2.1,2-3.6,4.1-3.3l1.3,0.1c2.1,0.2,3.6,2,3.3,4.1L316.3,240.5z"/>
			<path class="st8" d="M308.9,227.6"/>
			<line class="st8" x1="312.2" y1="216" x2="310.9" y2="229.2"/>
			<line class="st8" x1="314.4" y1="215.5" x2="313" y2="229.1"/>
			<line class="st8" x1="316.4" y1="216.4" x2="315.1" y2="229.4"/>
			<path class="st8" d="M317.3,228.5"/>
			<g>
				<path class="st7" d="M338.2,254.7l-3.7-23l-0.5-3.2c-1.4-8.8,7.2-15.8,15.5-12.6l3,1.2l3,1.2c8.3,3.2,10.1,14.2,3.2,19.8l-2.5,2
					L338.2,254.7z"/>
				<line class="st8" x1="339.4" y1="216.9" x2="334.5" y2="229.5"/>
				<line class="st8" x1="343.3" y1="215.3" x2="335.2" y2="236.4"/>
				<line class="st8" x1="346.7" y1="215.1" x2="336.3" y2="242.3"/>
				<line class="st8" x1="349.7" y1="216" x2="338.2" y2="246"/>
				<line class="st8" x1="352.6" y1="217.1" x2="341.1" y2="247.1"/>
				<path class="st8" d="M355.4,218.4c-2.1,5.5-9.2,24.2-11.3,29.7"/>
				<path class="st8" d="M358.2,219.7c-2.1,5.5-8.2,21.5-10.3,27"/>
				<path class="st8" d="M360.7,222c-2,5.3-6,15.7-8,21"/>
				<path class="st8" d="M362.6,225.7c-1.9,5.1-3.2,8.3-5.1,13.4"/>
			</g>
			<g>
				<path class="st9" d="M314,326.4l-5.5-2.1c-0.9-0.4-1.4-1.4-1.1-2.3l21.4-56.3c0.4-0.9,1.4-1.4,2.3-1.1l5.5,2.1
					c0.9,0.4,1.4,1.4,1.1,2.3l-21.4,56.3C316,326.3,315,326.7,314,326.4z"/>
				<g>
					<path class="st10" d="M309,324.5L309,324.5c-1.2-0.5-1.8-1.8-1.3-3.1l21.2-55.6c0.5-1.3,1.8-1.9,3-1.5l0,0"/>
				</g>
				<g>
					
						<rect x="332.3" y="246.2" transform="matrix(0.9344 0.3562 -0.3562 0.9344 113.9311 -103.1408)" class="st11" width="9.5" height="23.1"/>
					<g>
						<polyline class="st12" points="330.6,267.7 328.5,266.9 336.7,245.3 338.9,246.1 						"/>
					</g>
				</g>
			</g>
			<g>
				<path class="st7" d="M294.5,210.5c1.2-0.8,2.8-0.1,3,1.3c0,0.1,0,0.2,0,0.2v17h-9.9v-13.2c0-0.6,0.3-1.1,0.8-1.5L294.5,210.5z"
					/>
				<line class="st8" x1="289" y1="214" x2="289" y2="226.1"/>
				<line class="st8" x1="291.4" y1="212.5" x2="291.4" y2="226.1"/>
				<line class="st8" x1="293.7" y1="211" x2="293.7" y2="226.1"/>
				<line class="st8" x1="296.1" y1="210.1" x2="296.1" y2="226.1"/>
				<g>
					<path class="st9" d="M295.7,313.6h-6.3c-1,0-1.8-0.8-1.8-1.8v-63c0-1,0.8-1.8,1.8-1.8h6.3c1,0,1.8,0.8,1.8,1.8v63
						C297.5,312.8,296.7,313.6,295.7,313.6z"/>
					<g>
						<path class="st10" d="M290,313.6L290,313.6c-1.3,0-2.4-1.1-2.4-2.6v-62.1c0-1.4,1.1-2.6,2.4-2.6l0,0"/>
					</g>
					<g>
						<rect x="287.6" y="226.1" class="st11" width="9.9" height="24.1"/>
						<g>
							<polyline class="st12" points="290,250.2 287.6,250.2 287.6,226.1 290,226.1 							"/>
						</g>
					</g>
				</g>
			</g>
			<g>
				<path class="st9" d="M306.6,318.3l-5.1-0.5c-1-0.1-1.7-1-1.6-2l6.5-64.1c0.1-1,1-1.7,2-1.6l5.1,0.5c1,0.1,1.7,1,1.6,2l-6.5,64.1
					C308.5,317.7,307.6,318.4,306.6,318.3z"/>
				<g>
					<path class="st10" d="M301.8,317.8L301.8,317.8c-1.2-0.1-2-1.4-1.9-2.8l6.4-63.1c0.1-1.4,1.2-2.5,2.4-2.4h0"/>
				</g>
				<g>
					
						<rect x="307.4" y="229.1" transform="matrix(0.9949 0.1008 -0.1008 0.9949 25.9227 -30.198)" class="st11" width="8.8" height="24.6"/>
					<g>
						<polyline class="st12" points="308.3,253.4 306.2,253.2 308.6,228.7 310.8,228.9 						"/>
					</g>
				</g>
			</g>
		</g>
		<g>
			<g>
				<polyline class="st13" points="267.7,213 272.6,221.4 261.9,223.3 263.8,213.7 				"/>
				<polyline points="263.8,213.7 264.9,208.3 267.7,213 				"/>
				<path d="M277.9,314.1l0.6,3.4c0.4,2.5,2.8,4.1,5.3,3.7l1.8-0.3c2.5-0.4,4.1-2.8,3.7-5.3l-0.6-3.4L277.9,314.1z"/>
				<path class="st14" d="M272.6,221.4l-10.7,1.9l16,90.8c3.5-0.6,7.2-1.3,10.7-1.9L272.6,221.4z"/>
			</g>
			<path class="st15" d="M327.4,357.8h-47.7l-7.6-60.1c-0.1-0.8,0.5-1.5,1.3-1.5h60.3c0.8,0,1.4,0.7,1.3,1.5L327.4,357.8z"/>
		</g>
	</g>
	<g>
		<g>
			<path class="st16" d="M52.1,357.5h43.5c2,0,3.5-1.7,3.5-3.7v-24.4h-47"/>
			<path class="st17" d="M56.3,357.5h-5.5c-2,0-3.5-1.7-3.5-3.7v-24.4h9"/>
		</g>
		<g>
			<g>
				<g>
					<g>
						<polyline class="st11" points="62.9,250.6 85.6,250.6 85.6,211.5 62.9,211.5 						"/>
					</g>
					<g>
						<polyline class="st18" points="67.6,251 62.9,251 62.9,211.5 67.6,211.5 						"/>
					</g>
				</g>
				<g>
					<g>
						<polyline class="st11" points="60.8,281.5 88.9,281.5 88.9,232.9 60.8,232.9 						"/>
					</g>
					<g>
						<polyline class="st18" points="63.3,281.5 57.9,281.5 57.9,232.9 63.3,232.9 						"/>
					</g>
				</g>
			</g>
		</g>
		<path class="st16" d="M91.4,340.5H55.4c-21.7,0-39.3-17.6-39.3-39.3v-4.1c0-21.7,17.6-39.3,39.3-39.3h35.9
			c21.7,0,39.3,17.6,39.3,39.3v4.1C130.6,323,113.1,340.5,91.4,340.5z"/>
		<ellipse class="st19" cx="73.3" cy="219.1" rx="3.6" ry="3.8"/>
		<g>
			<path class="st17" d="M55,339c-18.4-3.2-29-21-29-39.6v0c0-22.9,18.4-41.4,41.2-41.4H55.3c-22.8,0-41.2,18.6-41.2,41.4v0
				c0,22.9,18.4,41.4,41.2,41.4h0.9l0-1.7L55,339z"/>
		</g>
	</g>
	<g>
		<g>
			<circle class="st20" cx="388.5" cy="301.3" r="33.4"/>
			<ellipse class="st21" cx="388.5" cy="301.3" rx="29.4" ry="29.3"/>
			<ellipse class="st3" cx="388.5" cy="301.3" rx="27.7" ry="27.7"/>
			<g>
				<path class="st4" d="M368.1,301.7c0-14,10.1-25.3,22.6-25.3c-0.8-0.1-1.5-0.1-2.3-0.1c-13.8,0-25.1,11.2-25.1,25
					c0,12.5,9.2,22.8,21.1,24.7C375,322.9,368.1,313.2,368.1,301.7z"/>
			</g>
		</g>
		<path class="st22" d="M429.8,351.8h-82.8v0c0-10.7,8.6-19.3,19.3-19.3h44.2C421.2,332.5,429.8,341.1,429.8,351.8L429.8,351.8z"/>
		<g>
			<path class="st21" d="M355.8,357.4h-8.7v-16.1c0-1.7,1.4-3.1,3.1-3.1h5.6"/>
			<path class="st20" d="M355.8,338.1h70.9c1.7,0,3.1,1.4,3.1,3.1v16.1h-74"/>
		</g>
	</g>
	<g>
		<g>
			<rect x="654.2" y="336.2" class="st20" width="20.8" height="9"/>
			<rect x="552" y="336.2" class="st20" width="20.8" height="9"/>
			<g>
				<path class="st20" d="M686.3,337.8H544.3c-7.2,0-13.5-4.6-15.7-11.4L518,294.1c-2.2-6.8-1-14.3,3.7-19.7c4-4.5,9.9-7.4,16.4-7.4
					h154.3c6.1,0,11.5,2.5,15.5,6.5c5.3,5.4,6.9,13.4,4.6,20.6l-10.5,32.3C699.8,333.2,693.5,337.8,686.3,337.8z"/>
				<path class="st3" d="M680.8,332.6h-131c-6.6,0-12.4-3.9-14.5-9.7l-9.8-28c-1.7-4.8-1.1-10.2,1.9-14.3c3.6-5.1,9.8-8.4,16.8-8.4
					h142.3c7.4,0,13.9,3.7,17.4,9.3c2.5,4,2.9,9,1.3,13.4l-9.9,28C693.3,328.7,687.4,332.6,680.8,332.6z"/>
				<g>
					<path class="st4" d="M531.4,291.9c3.2-5.3,9.1-9.1,16.1-9.7l98.2-7.5h-99.3c-7,0-13.2,3.3-16.8,8.4c-3,4.2-3.6,9.5-1.9,14.3
						l1.7,4.9C528.9,298.8,529.5,295.1,531.4,291.9z"/>
					<path class="st4" d="M529.6,306.5l5.8,16.4c0.8,2.3,2.2,4.3,4,5.9L529.6,306.5z"/>
				</g>
			</g>
		</g>
		<g>
			<g>
				<path class="st23" d="M566,355.1h-30.9v-3.4c0-6.1,4.9-11,11-11h8.9c6.1,0,11,4.9,11,11V355.1z"/>
				<path class="st24" d="M598.4,355.1h-30.9v-3.4c0-6.1,4.9-11,11-11h8.9c6.1,0,11,4.9,11,11V355.1z"/>
				<path class="st25" d="M630.8,355.1h-30.9v-3.4c0-6.1,4.9-11,11-11h8.9c6.1,0,11,4.9,11,11V355.1z"/>
				<path class="st26" d="M663.2,355.1h-30.9v-3.4c0-6.1,4.9-11,11-11h8.9c6.1,0,11,4.9,11,11V355.1z"/>
				<path class="st27" d="M695.6,355.1h-30.9v-3.4c0-6.1,4.9-11,11-11h8.9c6.1,0,11,4.9,11,11V355.1z"/>
			</g>
		</g>
		<g>
			<path class="st21" d="M543.5,358.3h-19.3V347c0-1.2,3.1-2.2,7-2.2h12.3"/>
			<path class="st20" d="M543.5,344.8h157.2c3.8,0,7,1,7,2.2v11.3H543.5"/>
		</g>
	</g>
	<g>
		<g>
			<g>
				<path class="st28" d="M496,326.4h-2.5V267c0-0.6,0.5-1.2,1.2-1.2h0.1c0.6,0,1.2,0.5,1.2,1.2V326.4z"/>
				<g>
					<path class="st28" d="M496.5,268.2h-3.5c-0.3,0-0.5-0.2-0.5-0.5v-0.1c0-0.3,0.2-0.5,0.5-0.5h3.5c0.3,0,0.5,0.2,0.5,0.5v0.1
						C497.1,268,496.8,268.2,496.5,268.2z"/>
					<path class="st28" d="M497.3,269.8h-4.9c-0.3,0-0.5-0.2-0.5-0.5v-0.1c0-0.3,0.2-0.5,0.5-0.5h4.9c0.3,0,0.5,0.2,0.5,0.5v0.1
						C497.8,269.5,497.6,269.8,497.3,269.8z"/>
					<path class="st28" d="M498.1,271.4h-6.5c-0.3,0-0.5-0.2-0.5-0.5v-0.1c0-0.3,0.2-0.5,0.5-0.5h6.5c0.3,0,0.5,0.2,0.5,0.5v0.1
						C498.6,271.2,498.4,271.4,498.1,271.4z"/>
					<path class="st28" d="M498.7,272.9h-7.8c-0.3,0-0.5-0.2-0.5-0.5v-0.1c0-0.3,0.2-0.5,0.5-0.5h7.8c0.3,0,0.5,0.2,0.5,0.5v0.1
						C499.2,272.7,499,272.9,498.7,272.9z"/>
					<path class="st28" d="M499.4,274.5h-9.2c-0.3,0-0.5-0.2-0.5-0.5v-0.1c0-0.3,0.2-0.5,0.5-0.5h9.2c0.3,0,0.5,0.2,0.5,0.5v0.1
						C499.9,274.2,499.7,274.5,499.4,274.5z"/>
					<path class="st28" d="M499.4,276h-9.2c-0.3,0-0.5-0.2-0.5-0.5v-0.1c0-0.3,0.2-0.5,0.5-0.5h9.2c0.3,0,0.5,0.2,0.5,0.5v0.1
						C499.9,275.7,499.7,276,499.4,276z"/>
					<path class="st28" d="M499.5,277.5h-9.2c-0.3,0-0.5-0.2-0.5-0.5v-0.1c0-0.3,0.2-0.5,0.5-0.5h9.2c0.3,0,0.5,0.2,0.5,0.5v0.1
						C500,277.2,499.7,277.5,499.5,277.5z"/>
					<path class="st28" d="M499.4,279h-9.2c-0.3,0-0.5-0.2-0.5-0.5v-0.1c0-0.3,0.2-0.5,0.5-0.5h9.2c0.3,0,0.5,0.2,0.5,0.5v0.1
						C499.9,278.8,499.7,279,499.4,279z"/>
					<path class="st28" d="M498.8,280.5h-7.8c-0.3,0-0.5-0.2-0.5-0.5v-0.1c0-0.3,0.2-0.5,0.5-0.5h7.8c0.3,0,0.5,0.2,0.5,0.5v0.1
						C499.3,280.3,499,280.5,498.8,280.5z"/>
					<path class="st28" d="M497.9,282h-6.2c-0.3,0-0.5-0.2-0.5-0.5v-0.1c0-0.3,0.2-0.5,0.5-0.5h6.2c0.3,0,0.5,0.2,0.5,0.5v0.1
						C498.4,281.8,498.2,282,497.9,282z"/>
					<path class="st28" d="M497.2,283.5h-4.8c-0.3,0-0.5-0.2-0.5-0.5v-0.1c0-0.3,0.2-0.5,0.5-0.5h4.8c0.3,0,0.5,0.2,0.5,0.5v0.1
						C497.7,283.3,497.5,283.5,497.2,283.5z"/>
				</g>
			</g>
		</g>
		<g>
			<g>
				<path class="st29" d="M471.8,269h-15.4v-8.8c0-1,0.8-1.8,1.8-1.8H470c1,0,1.8,0.8,1.8,1.8V269z"/>
				<path class="st30" d="M461,269h-4.7v-8.8c0-1,0.8-1.8,1.8-1.8h2.9V269z"/>
			</g>
			<g>
				<path class="st29" d="M468.3,358.6h-8.6c-2.8,0-5-2.2-5-5v-87.7h18.6v87.7C473.3,356.3,471.1,358.6,468.3,358.6z"/>
				<g>
					<g>
						<g>
							<path class="st30" d="M460.4,358.6L460.4,358.6c-3.1,0-5.6-1.6-5.6-3.5v-85.5c0-1.9,2.5-3.5,5.6-3.5l0,0"/>
						</g>
					</g>
				</g>
			</g>
			<g>
				<path class="st10" d="M453.5,268.5c-1-0.2-1.8-1.1-1.8-2.2V266c0-1.3,1-2.3,2.3-2.3h1.7"/>
				<path class="st9" d="M455.6,263.7h18.5c1.3,0,2.3,1,2.3,2.3v0.3c0,1.3-1,2.3-2.3,2.3H454c-0.2,0-0.3,0-0.5-0.1"/>
			</g>
			<path class="st29" d="M480.5,301.7"/>
			<path class="st29" d="M461.9,301.7"/>
			<path class="st30" d="M461.9,301.6"/>
			<g>
				<path class="st29" d="M497.8,358.6h-6c-2.6,0-4.7-2.1-4.7-4.7v-29.9h15.4v29.9C502.5,356.4,500.4,358.6,497.8,358.6z"/>
				<path class="st30" d="M491.8,358.6L491.8,358.6c-2.6,0-4.7-2.1-4.7-4.7v-30h4.7V358.6z"/>
			</g>
		</g>
	</g>
	<g>
		<g>
			<path class="st31" d="M232.7,358.6c-1.5,0-2.7-1.3-2.7-2.8v-33.9h2.7"/>
			<path class="st32" d="M232.7,321.9h18.1v33.9c0,1.6-1.3,2.8-2.8,2.8h-15.2c0,0-0.1,0-0.1,0"/>
		</g>
		<path class="st33" d="M243,273.6c0.5-0.4,1.2-0.6,1.9-0.3c1.4,0.5,2.3,1.8,2.3,3.3V294h-13.5v-10.3c0-1.6,0.7-3.2,2-4.2L243,273.6
			z"/>
		<g>
			<polyline class="st9" points="233.7,319.4 248.7,319.4 248.7,291.4 233.7,291.4 			"/>
			<polyline class="st10" points="235,319.4 232.1,319.4 232.1,291.4 235,291.4 			"/>
		</g>
		<g>
			<path class="st10" d="M230,322.7c-1-0.2-1.8-1.1-1.8-2.2v-0.3c0-1.2,1-2.3,2.3-2.3h1.6"/>
			<path class="st9" d="M232.1,318h18.3c1.2,0,2.3,1,2.3,2.3v0.3c0,1.2-1,2.3-2.3,2.3h-19.9c-0.2,0-0.3,0-0.5-0.1"/>
		</g>
	</g>
	<g>
		<path class="st3" d="M157.3,314.7h-6.2c-1.4,0-2.5-1.1-2.5-2.5l0,0c0-1.4,1.1-2.5,2.5-2.5h6.2c1.4,0,2.5,1.1,2.5,2.5l0,0
			C159.8,313.6,158.7,314.7,157.3,314.7z"/>
		<path class="st3" d="M166.3,357.6h-24.2c-2.9,0-5.2-2.3-5.2-5.2v-30.8c0-3.9,3.2-7.1,7.1-7.1h20.5c3.9,0,7.1,3.2,7.1,7.1v30.8
			C171.6,355.2,169.2,357.6,166.3,357.6z"/>
		<path class="st34" d="M162.2,354.9h-16c-3.7,0-6.6-3-6.6-6.6v-24.6c0-3.7,3-6.6,6.6-6.6h16c3.7,0,6.6,3,6.6,6.6v24.6
			C168.8,351.9,165.9,354.9,162.2,354.9z"/>
		<path class="st10" d="M147.7,309.7h-1.7c-1.1,0-2-0.9-2-2v-33.3c0-1.1,0.9-2,2-2h1.7"/>
		<path class="st9" d="M147.7,272.3h14.9c1.1,0,2,0.9,2,2v33.3c0,1.1-0.9,2-2,2h-14.8"/>
	</g>
	<g>
		<path class="st3" d="M200.6,314.5h-6.2c-1.4,0-2.5-1.1-2.5-2.5l0,0c0-1.4,1.1-2.5,2.5-2.5h6.2c1.4,0,2.5,1.1,2.5,2.5l0,0
			C203.1,313.4,201.9,314.5,200.6,314.5z"/>
		<path class="st3" d="M209.6,357.4h-24.2c-2.9,0-5.2-2.3-5.2-5.2v-30.8c0-3.9,3.2-7.1,7.1-7.1h20.5c3.9,0,7.1,3.2,7.1,7.1v30.8
			C214.8,355,212.5,357.4,209.6,357.4z"/>
		<path class="st35" d="M205.5,354.7h-16c-3.7,0-6.6-3-6.6-6.6v-24.6c0-3.7,3-6.6,6.6-6.6h16c3.7,0,6.6,3,6.6,6.6v24.6
			C212.1,351.7,209.1,354.7,205.5,354.7z"/>
		<path class="st10" d="M190.9,309.5h-1.7c-1.1,0-2-0.9-2-2v-33.3c0-1.1,0.9-2,2-2h1.7"/>
		<path class="st9" d="M190.9,272.1h14.9c1.1,0,2,0.9,2,2v33.3c0,1.1-0.9,2-2,2h-14.8"/>
	</g>
</g>
<g>
	<rect y="357.8" class="st2" width="960" height="138.6"/>
	<g>
		<rect x="48.6" y="384.5" class="st36" width="257.6" height="85.2"/>
	</g>
	<g>
		<rect x="348.6" y="384.5" class="st37" width="257.6" height="85.2"/>
	</g>
	<g>
		<rect x="653.8" y="384.5" class="st38" width="257.6" height="85.2"/>
	</g>
</g>
<g>
	<g>
		<g>
			<path class="st39" d="M757.6,337.1l0.2,0.4c1,1.8,2.5,3.4,4.2,4.9c2.2,1.8,4.8,3.1,8.2,4.1l2.9,0.8c3.2,0.6,5.9,0.9,8.8,0.4
				c9.3-1.8,22.3-2.4,30.8-2.4c1.9-6.1,1.6-11.5-1-15.9c-4.5-7.8-14.4-10.1-14.5-10.2l0.5-2c0.3,0.1,6.2,1.5,11.3,5.7
				c-2-5.2-2.7-9.8-2.7-12.5c-0.1-9.1,6.1-16.2,8.4-18.6c-6-5.3-6-15.5-5.6-19.8c0.1-1.3,0.3-2.4,0.6-3.4c0.5-1.4,0.6-3.6,0.5-5.9
				c-1.1-1.4-11.4-4.3-25.4-2.4c-13.2,1.8-36.2,8.9-42.1,36.8c-0.9,4.5-0.6,9.5,1,14.8c1.6,5.3,4.2,9,7.7,11c0-1.9,0.2-3.9,0.7-5.9
				c1.5-6,5.5-10.8,11.8-14.3l1,1.8c-5.8,3.2-9.4,7.6-10.8,13c-2,8,1.5,16,2.8,18.2C757.2,336.3,757.4,336.7,757.6,337.1z"/>
			<path class="st39" d="M869.6,357.1L869.6,357.1c-13.3-0.6-24.8-3-34.2-7.3c-7.8-3.6-14.2-8.4-19.1-14.4c-0.1-0.2-0.3-0.3-0.4-0.5
				c0.5,3.2,0.2,6.7-0.9,10.4c2.9,0,5.1,0.1,6.1,0.2c9.5,1,16.2,11.2,16.6,11.8c2.4,3.4,3.9,6.5,4.9,9.3c3.9,0.2,30.4,0.8,35.8-10.5
				C873.6,357,870,357.1,869.6,357.1L869.6,357.1z"/>
			<path class="st39" d="M835.9,358.4c-0.1-0.1-6.5-10-15.1-10.9c-2.9-0.3-24.3-0.5-38.5,2.2c-3.2,0.6-6.2,0.3-9.6-0.4l-0.1,0
				l-3-0.9c-3.6-1-6.5-2.5-8.9-4.5c-1.9-1.5-3.4-3.3-4.5-5.1c-2,3-4.6,8.2-3.6,14.5c1.7,10.4,12.4,17.8,20.5,17.3
				c3-0.2,3-0.2,8.9-1.2c7.3-1.3,15.6-2.7,22.5-2.7c6.1,0,11,1.1,13.4,4.4c3,4.1,2.2,8.2,2.1,8.3c-0.2,1.1-0.7,2-1.1,2.7
				c-1.8,3-3.9,4.5-5.6,5.6c-2.3,1.6-3.7,2.5-3.4,6.3c0.1,1.3,1.2,2.7,3.3,4c2.8,1.8,6.2,2.4,9.7,1.7c5.9-1.1,16.1-5.3,18.9-21.3
				c0-0.3,0.1-0.6,0.2-0.8C842,377.6,843.6,369.4,835.9,358.4L835.9,358.4z"/>
			<path class="st39" d="M901,283.9l-0.3-0.4c-0.1-0.1-5.8-6.9-15.6-12.5c-9-5.1-23.2-10.2-40.3-5.4l-0.4,0.1l-0.4-0.2
				c-0.2-0.1-17.4-9.9-32.5-10.6c0.4,3,1.3,10.8,0.1,14.4c-0.3,0.8-0.4,1.8-0.5,2.9c-0.3,4.2-0.4,14.4,5.8,18.7l1.1,0.8l-1,0.9
				c-0.1,0.1-8.7,7.7-8.6,17.8c0,0.5,0.2,12.2,9.5,23.6c10.6,12.9,28,20,51.7,21c0.9,0,21.6-0.8,30.1-12.9
				c2.5-3.6,5.1-11.6,4.7-18.2l0-0.7l0.6-0.3c0.1-0.1,9.9-5.4,16.3-14.4c2.6-3.7,4.4-8.5,7.3-16.5l0.1-0.2
				c-1.7-1.6-9.3-7.6-27.1-7.9L901,283.9z M866,343.8l-2.6,2.5c-1.2,1.2-3.1,0.9-4-0.6l-1.7-3.1c-0.3-0.6,0.2-1.3,0.8-1.2l6.9,0.9
				C866.2,342.4,866.5,343.3,866,343.8z"/>
			<path class="st40" d="M902,281.8c-1.4-1.5-6.9-7.5-15.8-12.6c-9.2-5.3-23.9-10.6-41.5-5.8c-2.8-1.6-19.5-10.5-34.3-10.7l-1.2,0
				l0.2,1.2c0,0.1,0.5,2.9,0.7,6.2c-4.3-2.1-13.9-3.1-23.1-2.2c-7.4,0.7-18.2,3-27.7,9.6c-9.7,6.8-16,16.6-18.6,29.2
				c-1,4.9-0.7,10.2,1,15.8c1.9,6.3,5.2,10.6,9.7,12.8l0.1-0.2c0.5,5.4,2.5,9.9,3.6,11.8c-2.2,3-5.7,9.2-4.5,16.8
				c0.9,5.4,3.9,10.4,8.7,14.1c4.3,3.4,9.6,5.2,14.1,4.9c3.1-0.2,3.1-0.2,9.1-1.2c12.5-2.2,29.6-5.1,33.9,0.8
				c2.4,3.3,1.8,6.5,1.8,6.7c-0.2,1-0.6,1.7-0.8,2c-1.5,2.6-3.4,3.8-5,4.9c-2.4,1.6-4.7,3.2-4.4,8.2c0.2,2,1.6,3.9,4.2,5.6
				c2.4,1.5,5.2,2.3,8.1,2.3c1,0,2-0.1,3.1-0.3c6.4-1.2,17.6-5.8,20.5-23c0-0.2,0.1-0.5,0.1-0.7c0.1-0.2,0.8-3.8-0.7-9.4
				c0.8,0,1.8,0.1,3.1,0.1c9.4,0,30.6-1.3,34.5-13.2c7-1.7,15.6-5.1,20.6-12.3c2.6-3.8,5.3-12,5.1-18.9c2.3-1.3,10.6-6.5,16.4-14.7
				c2.8-3.9,4.6-8.8,7.5-17l0.5-1.4l-0.4-0.5C930.3,290.5,923.3,282.4,902,281.8z M754.1,317.6c1.4-5.4,5-9.8,10.8-13l-1-1.8
				c-6.3,3.5-10.2,8.3-11.8,14.3c-0.5,2-0.7,4-0.7,5.9c-3.5-2-6.1-5.7-7.7-11c-1.6-5.3-1.9-10.3-1-14.8c5.9-28,28.9-35.1,42.1-36.8
				c14.1-1.9,24.3,1,25.4,2.4c0.1,2.3,0,4.5-0.5,5.9c-0.3,1-0.5,2.1-0.6,3.4c-0.3,4.3-0.3,14.5,5.6,19.8c-2.4,2.4-8.5,9.4-8.4,18.6
				c0,2.7,0.7,7.3,2.7,12.5c-5-4.2-10.9-5.6-11.3-5.7l-0.5,2c0.1,0,10,2.4,14.5,10.2c2.5,4.4,2.9,9.7,1,15.9
				c-8.5,0.1-21.5,0.7-30.8,2.4c-2.8,0.5-5.6,0.2-8.8-0.4l-2.9-0.8c-3.4-1-6-2.3-8.2-4.1c-1.8-1.5-3.2-3.1-4.2-4.9l-0.2-0.4
				c-0.2-0.4-0.5-0.8-0.7-1.2C755.5,333.7,752,325.6,754.1,317.6z M841.9,377.6c-0.1,0.3-0.1,0.6-0.2,0.8
				c-2.8,15.9-13,20.2-18.9,21.3c-3.5,0.7-6.9,0-9.7-1.7c-2.1-1.3-3.2-2.7-3.3-4c-0.3-3.8,1.1-4.7,3.4-6.3c1.7-1.2,3.9-2.6,5.6-5.6
				c0.4-0.7,0.8-1.5,1.1-2.7c0-0.2,0.9-4.3-2.1-8.3c-2.4-3.3-7.4-4.4-13.4-4.4c-6.9,0-15.2,1.4-22.5,2.7c-5.8,1-5.8,1-8.9,1.2
				c-8.1,0.6-18.8-6.8-20.5-17.3c-1-6.2,1.6-11.5,3.6-14.5c1.1,1.9,2.7,3.6,4.5,5.1c2.4,2,5.3,3.5,8.9,4.5l3,0.9l0.1,0
				c3.5,0.7,6.4,1,9.6,0.4c14.1-2.7,35.6-2.5,38.5-2.2c8.6,0.9,15,10.8,15.1,10.9l0,0C843.6,369.4,842,377.6,841.9,377.6z
				 M842.6,366.5c-1-2.8-2.5-5.9-4.9-9.3c-0.4-0.7-7.1-10.8-16.6-11.8c-1-0.1-3.2-0.2-6.1-0.2c1.1-3.7,1.4-7.2,0.9-10.4
				c0.1,0.2,0.3,0.3,0.4,0.5c4.9,6,11.3,10.8,19.1,14.4c9.4,4.3,20.9,6.8,34.2,7.3l0,0l0,0c0.4,0,3.9-0.1,8.7-1
				C872.9,367.4,846.4,366.7,842.6,366.5z M928.5,292c-2.9,8-4.6,12.9-7.3,16.5c-6.4,8.9-16.2,14.3-16.3,14.4l-0.6,0.3l0,0.7
				c0.4,6.6-2.2,14.6-4.7,18.2c-8.5,12.1-29.2,12.9-30.1,12.9c-23.8-1-41.2-8.1-51.7-21c-9.4-11.5-9.5-23.1-9.5-23.6
				c-0.1-10.1,8.5-17.8,8.6-17.8l1-0.9l-1.1-0.8c-6.1-4.3-6.1-14.5-5.8-18.7c0.1-1.1,0.3-2,0.5-2.9c1.2-3.7,0.3-11.4-0.1-14.4
				c15.1,0.7,32.3,10.5,32.5,10.6l0.4,0.2l0.4-0.1c17.1-4.8,31.3,0.3,40.3,5.4c9.8,5.6,15.5,12.4,15.6,12.5l0.3,0.4l0.5,0
				c17.8,0.4,25.4,6.3,27.1,7.9L928.5,292z"/>
			<path class="st41" d="M865.5,342.3l-6.9-0.9c-0.7-0.1-1.2,0.6-0.8,1.2l1.7,3.1c0.8,1.4,2.8,1.7,4,0.6l2.6-2.5
				C866.5,343.3,866.2,342.4,865.5,342.3z"/>
		</g>
		<g>
			<g>
				<g>
					<path class="st42" d="M895,297.5L895,297.5c-0.5,0.3-1.2,0.1-1.4-0.4l-5.5-9.5c-0.3-0.5-0.1-1.2,0.4-1.4l0,0
						c0.5-0.3,1.2-0.1,1.4,0.4l5.5,9.5C895.7,296.6,895.5,297.2,895,297.5z"/>
					<line class="st43" x1="889.9" y1="288.8" x2="893.4" y2="294.7"/>
				</g>
				<g>
					<path class="st42" d="M897.4,295.1L897.4,295.1c-0.3,0.5-0.9,0.7-1.4,0.4l-9.5-5.5c-0.5-0.3-0.7-0.9-0.4-1.4l0,0
						c0.3-0.5,0.9-0.7,1.4-0.4l9.5,5.5C897.5,294,897.7,294.6,897.4,295.1z"/>
					<line class="st43" x1="888.6" y1="290.1" x2="894.6" y2="293.5"/>
				</g>
				<g>
					<path class="st42" d="M885.2,291.9L885.2,291.9c0-0.6,0.5-1.1,1.1-1.1h10.9c0.6,0,1.1,0.5,1.1,1.1l0,0c0,0.6-0.5,1.1-1.1,1.1
						h-10.9C885.7,292.9,885.2,292.4,885.2,291.9z"/>
					<line class="st43" x1="895.3" y1="291.9" x2="888.4" y2="291.9"/>
				</g>
				<g>
					<path class="st42" d="M886.1,295.1L886.1,295.1c-0.3-0.5-0.1-1.2,0.4-1.4l9.5-5.5c0.5-0.3,1.2-0.1,1.4,0.4h0
						c0.3,0.5,0.1,1.2-0.4,1.4l-9.5,5.5C887,295.8,886.4,295.6,886.1,295.1z"/>
					<line class="st43" x1="894.8" y1="290.1" x2="888.9" y2="293.5"/>
				</g>
				<g>
					<path class="st42" d="M888.5,297.5L888.5,297.5c-0.5-0.3-0.7-0.9-0.4-1.4l5.5-9.5c0.3-0.5,0.9-0.7,1.4-0.4l0,0
						c0.5,0.3,0.7,0.9,0.4,1.4l-5.5,9.5C889.6,297.6,889,297.8,888.5,297.5z"/>
					<line class="st43" x1="893.5" y1="288.8" x2="890.1" y2="294.7"/>
				</g>
				<g>
					<path class="st42" d="M891.7,298.4L891.7,298.4c-0.6,0-1.1-0.5-1.1-1.1v-10.9c0-0.6,0.5-1.1,1.1-1.1l0,0c0.6,0,1.1,0.5,1.1,1.1
						v10.9C892.8,297.9,892.3,298.4,891.7,298.4z"/>
					<line class="st43" x1="891.7" y1="288.3" x2="891.7" y2="295.2"/>
				</g>
				<circle class="st44" cx="891.9" cy="291.9" r="1.8"/>
			</g>
			<g>
				<g>
					<path class="st45" d="M887.1,299.2L887.1,299.2c-0.5,0.3-1.2,0.1-1.4-0.4l-5.5-9.5c-0.3-0.5-0.1-1.2,0.4-1.4l0,0
						c0.5-0.3,1.2-0.1,1.4,0.4l5.5,9.5C887.8,298.2,887.6,298.9,887.1,299.2z"/>
					<line class="st43" x1="882.1" y1="290.4" x2="885.5" y2="296.4"/>
				</g>
				<g>
					<path class="st45" d="M889.5,296.8L889.5,296.8c-0.3,0.5-0.9,0.7-1.4,0.4l-9.5-5.5c-0.5-0.3-0.7-0.9-0.4-1.4l0,0
						c0.3-0.5,0.9-0.7,1.4-0.4l9.5,5.5C889.6,295.6,889.8,296.3,889.5,296.8z"/>
					<line class="st43" x1="880.8" y1="291.7" x2="886.7" y2="295.2"/>
				</g>
				<g>
					<path class="st45" d="M877.3,293.5L877.3,293.5c0-0.6,0.5-1.1,1.1-1.1h10.9c0.6,0,1.1,0.5,1.1,1.1l0,0c0,0.6-0.5,1.1-1.1,1.1
						h-10.9C877.8,294.6,877.3,294.1,877.3,293.5z"/>
					<line class="st43" x1="887.4" y1="293.5" x2="880.6" y2="293.5"/>
				</g>
				<g>
					<path class="st45" d="M878.2,296.8L878.2,296.8c-0.3-0.5-0.1-1.2,0.4-1.4l9.5-5.5c0.5-0.3,1.2-0.1,1.4,0.4l0,0
						c0.3,0.5,0.1,1.2-0.4,1.4l-9.5,5.5C879.1,297.5,878.5,297.3,878.2,296.8z"/>
					<line class="st43" x1="887" y1="291.7" x2="881" y2="295.2"/>
				</g>
				<g>
					<path class="st45" d="M880.6,299.2L880.6,299.2c-0.5-0.3-0.7-0.9-0.4-1.4l5.5-9.5c0.3-0.5,0.9-0.7,1.4-0.4l0,0
						c0.5,0.3,0.7,0.9,0.4,1.4l-5.5,9.5C881.7,299.3,881.1,299.5,880.6,299.2z"/>
					<line class="st43" x1="885.7" y1="290.4" x2="882.2" y2="296.4"/>
				</g>
				<g>
					<path class="st45" d="M883.9,300L883.9,300c-0.6,0-1.1-0.5-1.1-1.1V288c0-0.6,0.5-1.1,1.1-1.1l0,0c0.6,0,1.1,0.5,1.1,1.1V299
						C884.9,299.6,884.4,300,883.9,300z"/>
					<line class="st43" x1="883.9" y1="289.9" x2="883.9" y2="296.8"/>
				</g>
				<circle class="st44" cx="884" cy="293.5" r="1.8"/>
			</g>
			<g>
				<g>
					<path class="st46" d="M879,299.2L879,299.2c-0.5,0.3-1.2,0.1-1.4-0.4l-5.5-9.5c-0.3-0.5-0.1-1.2,0.4-1.4l0,0
						c0.5-0.3,1.2-0.1,1.4,0.4l5.5,9.5C879.7,298.3,879.5,298.9,879,299.2z"/>
					<line class="st43" x1="874" y1="290.5" x2="877.4" y2="296.4"/>
				</g>
				<g>
					<path class="st46" d="M881.4,296.8L881.4,296.8c-0.3,0.5-0.9,0.7-1.4,0.4l-9.5-5.5c-0.5-0.3-0.7-0.9-0.4-1.4l0,0
						c0.3-0.5,0.9-0.7,1.4-0.4l9.5,5.5C881.6,295.7,881.7,296.3,881.4,296.8z"/>
					<line class="st43" x1="872.7" y1="291.8" x2="878.6" y2="295.2"/>
				</g>
				<g>
					<path class="st46" d="M869.2,293.6L869.2,293.6c0-0.6,0.5-1.1,1.1-1.1h10.9c0.6,0,1.1,0.5,1.1,1.1l0,0c0,0.6-0.5,1.1-1.1,1.1
						h-10.9C869.7,294.6,869.2,294.2,869.2,293.6z"/>
					<line class="st43" x1="879.4" y1="293.6" x2="872.5" y2="293.6"/>
				</g>
				<g>
					<path class="st46" d="M870.1,296.8L870.1,296.8c-0.3-0.5-0.1-1.2,0.4-1.4l9.5-5.5c0.5-0.3,1.2-0.1,1.4,0.4l0,0
						c0.3,0.5,0.1,1.2-0.4,1.4l-9.5,5.5C871.1,297.5,870.4,297.4,870.1,296.8z"/>
					<line class="st43" x1="878.9" y1="291.8" x2="872.9" y2="295.2"/>
				</g>
				<g>
					<path class="st46" d="M872.5,299.2L872.5,299.2c-0.5-0.3-0.7-0.9-0.4-1.4l5.5-9.5c0.3-0.5,0.9-0.7,1.4-0.4l0,0
						c0.5,0.3,0.7,0.9,0.4,1.4l-5.5,9.5C873.7,299.4,873,299.5,872.5,299.2z"/>
					<line class="st43" x1="877.6" y1="290.5" x2="874.1" y2="296.4"/>
				</g>
				<g>
					<path class="st46" d="M875.8,300.1L875.8,300.1c-0.6,0-1.1-0.5-1.1-1.1v-10.9c0-0.6,0.5-1.1,1.1-1.1l0,0c0.6,0,1.1,0.5,1.1,1.1
						v10.9C876.8,299.6,876.4,300.1,875.8,300.1z"/>
					<line class="st43" x1="875.8" y1="290" x2="875.8" y2="296.9"/>
				</g>
				<circle class="st44" cx="875.9" cy="293.6" r="1.8"/>
			</g>
			<g>
				<g>
					<path class="st42" d="M871.4,297.5L871.4,297.5c-0.5,0.3-1.2,0.1-1.4-0.4l-5.5-9.5c-0.3-0.5-0.1-1.2,0.4-1.4l0,0
						c0.5-0.3,1.2-0.1,1.4,0.4l5.5,9.5C872.1,296.6,872,297.2,871.4,297.5z"/>
					<line class="st43" x1="866.4" y1="288.8" x2="869.8" y2="294.7"/>
				</g>
				<g>
					<path class="st42" d="M873.8,295.1L873.8,295.1c-0.3,0.5-0.9,0.7-1.4,0.4l-9.5-5.5c-0.5-0.3-0.7-0.9-0.4-1.4l0,0
						c0.3-0.5,0.9-0.7,1.4-0.4l9.5,5.5C874,294,874.1,294.6,873.8,295.1z"/>
					<line class="st43" x1="865.1" y1="290.1" x2="871" y2="293.5"/>
				</g>
				<g>
					<path class="st42" d="M861.6,291.9L861.6,291.9c0-0.6,0.5-1.1,1.1-1.1h10.9c0.6,0,1.1,0.5,1.1,1.1l0,0c0,0.6-0.5,1.1-1.1,1.1
						h-10.9C862.1,292.9,861.6,292.4,861.6,291.9z"/>
					<line class="st43" x1="871.8" y1="291.9" x2="864.9" y2="291.9"/>
				</g>
				<g>
					<path class="st42" d="M862.5,295.1L862.5,295.1c-0.3-0.5-0.1-1.2,0.4-1.4l9.5-5.5c0.5-0.3,1.2-0.1,1.4,0.4l0,0
						c0.3,0.5,0.1,1.2-0.4,1.4l-9.5,5.5C863.5,295.8,862.8,295.6,862.5,295.1z"/>
					<line class="st43" x1="871.3" y1="290.1" x2="865.3" y2="293.5"/>
				</g>
				<g>
					<path class="st42" d="M864.9,297.5L864.9,297.5c-0.5-0.3-0.7-0.9-0.4-1.4l5.5-9.5c0.3-0.5,0.9-0.7,1.4-0.4l0,0
						c0.5,0.3,0.7,0.9,0.4,1.4l-5.5,9.5C866.1,297.6,865.4,297.8,864.9,297.5z"/>
					<line class="st43" x1="870" y1="288.8" x2="866.5" y2="294.7"/>
				</g>
				<g>
					<path class="st42" d="M868.2,298.4L868.2,298.4c-0.6,0-1.1-0.5-1.1-1.1v-10.9c0-0.6,0.5-1.1,1.1-1.1l0,0c0.6,0,1.1,0.5,1.1,1.1
						v10.9C869.2,297.9,868.8,298.4,868.2,298.4z"/>
					<line class="st43" x1="868.2" y1="288.3" x2="868.2" y2="295.2"/>
				</g>
				<circle class="st44" cx="868.3" cy="291.9" r="1.8"/>
			</g>
			<g>
				<g>
					<path class="st45" d="M864.2,293.3L864.2,293.3c-0.5,0.3-1.2,0.1-1.4-0.4l-5.5-9.5c-0.3-0.5-0.1-1.2,0.4-1.4l0,0
						c0.5-0.3,1.2-0.1,1.4,0.4l5.5,9.5C864.9,292.4,864.7,293,864.2,293.3z"/>
					<line class="st43" x1="859.1" y1="284.6" x2="862.6" y2="290.5"/>
				</g>
				<g>
					<path class="st45" d="M866.6,290.9L866.6,290.9c-0.3,0.5-0.9,0.7-1.4,0.4l-9.5-5.5c-0.5-0.3-0.7-0.9-0.4-1.4l0,0
						c0.3-0.5,0.9-0.7,1.4-0.4l9.5,5.5C866.7,289.8,866.9,290.4,866.6,290.9z"/>
					<line class="st43" x1="857.8" y1="285.9" x2="863.8" y2="289.3"/>
				</g>
				<g>
					<path class="st45" d="M854.4,287.7L854.4,287.7c0-0.6,0.5-1.1,1.1-1.1h10.9c0.6,0,1.1,0.5,1.1,1.1l0,0c0,0.6-0.5,1.1-1.1,1.1
						h-10.9C854.9,288.7,854.4,288.3,854.4,287.7z"/>
					<line class="st43" x1="864.5" y1="287.7" x2="857.6" y2="287.7"/>
				</g>
				<g>
					<path class="st45" d="M855.3,290.9L855.3,290.9c-0.3-0.5-0.1-1.2,0.4-1.4l9.5-5.5c0.5-0.3,1.2-0.1,1.4,0.4l0,0
						c0.3,0.5,0.1,1.2-0.4,1.4l-9.5,5.5C856.2,291.6,855.6,291.4,855.3,290.9z"/>
					<line class="st43" x1="864" y1="285.9" x2="858.1" y2="289.3"/>
				</g>
				<g>
					<path class="st45" d="M857.7,293.3L857.7,293.3c-0.5-0.3-0.7-0.9-0.4-1.4l5.5-9.5c0.3-0.5,0.9-0.7,1.4-0.4l0,0
						c0.5,0.3,0.7,0.9,0.4,1.4l-5.5,9.5C858.8,293.4,858.2,293.6,857.7,293.3z"/>
					<line class="st43" x1="862.7" y1="284.6" x2="859.3" y2="290.5"/>
				</g>
				<g>
					<path class="st45" d="M860.9,294.2L860.9,294.2c-0.6,0-1.1-0.5-1.1-1.1v-10.9c0-0.6,0.5-1.1,1.1-1.1l0,0c0.6,0,1.1,0.5,1.1,1.1
						v10.9C862,293.7,861.5,294.2,860.9,294.2z"/>
					<line class="st43" x1="860.9" y1="284.1" x2="860.9" y2="291"/>
				</g>
				<circle class="st44" cx="861" cy="287.7" r="1.8"/>
			</g>
			<g>
				<g>
					<path class="st46" d="M857.7,288.6L857.7,288.6c-0.5,0.3-1.2,0.1-1.4-0.4l-5.5-9.5c-0.3-0.5-0.1-1.2,0.4-1.4h0
						c0.5-0.3,1.2-0.1,1.4,0.4l5.5,9.5C858.3,287.7,858.2,288.3,857.7,288.6z"/>
					<line class="st43" x1="852.6" y1="279.8" x2="856" y2="285.8"/>
				</g>
				<g>
					<path class="st46" d="M860.1,286.2L860.1,286.2c-0.3,0.5-0.9,0.7-1.4,0.4l-9.5-5.5c-0.5-0.3-0.7-0.9-0.4-1.4l0,0
						c0.3-0.5,0.9-0.7,1.4-0.4l9.5,5.5C860.2,285,860.3,285.7,860.1,286.2z"/>
					<line class="st43" x1="851.3" y1="281.1" x2="857.3" y2="284.6"/>
				</g>
				<g>
					<path class="st46" d="M847.9,282.9L847.9,282.9c0-0.6,0.5-1.1,1.1-1.1h10.9c0.6,0,1.1,0.5,1.1,1.1v0c0,0.6-0.5,1.1-1.1,1.1
						h-10.9C848.3,284,847.9,283.5,847.9,282.9z"/>
					<line class="st43" x1="858" y1="282.9" x2="851.1" y2="282.9"/>
				</g>
				<g>
					<path class="st46" d="M848.7,286.2L848.7,286.2c-0.3-0.5-0.1-1.2,0.4-1.4l9.5-5.5c0.5-0.3,1.2-0.1,1.4,0.4l0,0
						c0.3,0.5,0.1,1.2-0.4,1.4l-9.5,5.5C849.7,286.9,849,286.7,848.7,286.2z"/>
					<line class="st43" x1="857.5" y1="281.1" x2="851.5" y2="284.6"/>
				</g>
				<g>
					<path class="st46" d="M851.1,288.6L851.1,288.6c-0.5-0.3-0.7-0.9-0.4-1.4l5.5-9.5c0.3-0.5,0.9-0.7,1.4-0.4l0,0
						c0.5,0.3,0.7,0.9,0.4,1.4l-5.5,9.5C852.3,288.7,851.6,288.9,851.1,288.6z"/>
					<line class="st43" x1="856.2" y1="279.8" x2="852.7" y2="285.8"/>
				</g>
				<g>
					<path class="st46" d="M854.4,289.5L854.4,289.5c-0.6,0-1.1-0.5-1.1-1.1v-10.9c0-0.6,0.5-1.1,1.1-1.1l0,0c0.6,0,1.1,0.5,1.1,1.1
						v10.9C855.5,289,855,289.5,854.4,289.5z"/>
					<line class="st43" x1="854.4" y1="279.3" x2="854.4" y2="286.2"/>
				</g>
				<circle class="st44" cx="854.5" cy="282.9" r="1.8"/>
			</g>
			<g>
				<g>
					<path class="st42" d="M852.2,282.8L852.2,282.8c-0.5,0.3-1.2,0.1-1.4-0.4l-5.5-9.5c-0.3-0.5-0.1-1.2,0.4-1.4l0,0
						c0.5-0.3,1.2-0.1,1.4,0.4l5.5,9.5C852.9,281.9,852.7,282.5,852.2,282.8z"/>
					<line class="st43" x1="847.1" y1="274" x2="850.6" y2="280"/>
				</g>
				<g>
					<path class="st42" d="M854.6,280.4L854.6,280.4c-0.3,0.5-0.9,0.7-1.4,0.4l-9.5-5.5c-0.5-0.3-0.7-0.9-0.4-1.4l0,0
						c0.3-0.5,0.9-0.7,1.4-0.4l9.5,5.5C854.7,279.2,854.9,279.9,854.6,280.4z"/>
					<line class="st43" x1="845.8" y1="275.3" x2="851.8" y2="278.8"/>
				</g>
				<g>
					<path class="st42" d="M842.4,277.1L842.4,277.1c0-0.6,0.5-1.1,1.1-1.1h10.9c0.6,0,1.1,0.5,1.1,1.1l0,0c0,0.6-0.5,1.1-1.1,1.1
						h-10.9C842.9,278.2,842.4,277.7,842.4,277.1z"/>
					<line class="st43" x1="852.5" y1="277.1" x2="845.6" y2="277.1"/>
				</g>
				<g>
					<path class="st42" d="M843.3,280.4L843.3,280.4c-0.3-0.5-0.1-1.2,0.4-1.4l9.5-5.5c0.5-0.3,1.2-0.1,1.4,0.4l0,0
						c0.3,0.5,0.1,1.2-0.4,1.4l-9.5,5.5C844.2,281.1,843.6,280.9,843.3,280.4z"/>
					<line class="st43" x1="852" y1="275.3" x2="846.1" y2="278.8"/>
				</g>
				<g>
					<path class="st42" d="M845.7,282.8L845.7,282.8c-0.5-0.3-0.7-0.9-0.4-1.4l5.5-9.5c0.3-0.5,0.9-0.7,1.4-0.4l0,0
						c0.5,0.3,0.7,0.9,0.4,1.4l-5.5,9.5C846.8,282.9,846.2,283.1,845.7,282.8z"/>
					<line class="st43" x1="850.7" y1="274" x2="847.3" y2="280"/>
				</g>
				<g>
					<path class="st42" d="M848.9,283.7L848.9,283.7c-0.6,0-1.1-0.5-1.1-1.1v-10.9c0-0.6,0.5-1.1,1.1-1.1l0,0c0.6,0,1.1,0.5,1.1,1.1
						v10.9C850,283.2,849.5,283.7,848.9,283.7z"/>
					<line class="st43" x1="848.9" y1="273.5" x2="848.9" y2="280.4"/>
				</g>
				<circle class="st44" cx="849" cy="277.1" r="1.8"/>
			</g>
			<g>
				<g>
					<path class="st45" d="M848.1,275.7L848.1,275.7c-0.5,0.3-1.2,0.1-1.4-0.4l-5.5-9.5c-0.3-0.5-0.1-1.2,0.4-1.4l0,0
						c0.5-0.3,1.2-0.1,1.4,0.4l5.5,9.5C848.8,274.7,848.6,275.4,848.1,275.7z"/>
					<line class="st43" x1="843" y1="266.9" x2="846.5" y2="272.9"/>
				</g>
				<g>
					<path class="st45" d="M850.5,273.3L850.5,273.3c-0.3,0.5-0.9,0.7-1.4,0.4l-9.5-5.5c-0.5-0.3-0.7-0.9-0.4-1.4l0,0
						c0.3-0.5,0.9-0.7,1.4-0.4l9.5,5.5C850.6,272.1,850.8,272.8,850.5,273.3z"/>
					<line class="st43" x1="841.7" y1="268.2" x2="847.7" y2="271.7"/>
				</g>
				<g>
					<path class="st45" d="M838.3,270L838.3,270c0-0.6,0.5-1.1,1.1-1.1h10.9c0.6,0,1.1,0.5,1.1,1.1l0,0c0,0.6-0.5,1.1-1.1,1.1h-10.9
						C838.8,271.1,838.3,270.6,838.3,270z"/>
					<line class="st43" x1="848.4" y1="270" x2="841.5" y2="270"/>
				</g>
				<g>
					<path class="st45" d="M839.2,273.3L839.2,273.3c-0.3-0.5-0.1-1.2,0.4-1.4l9.5-5.5c0.5-0.3,1.2-0.1,1.4,0.4l0,0
						c0.3,0.5,0.1,1.2-0.4,1.4l-9.5,5.5C840.1,274,839.5,273.8,839.2,273.3z"/>
					<line class="st43" x1="847.9" y1="268.2" x2="842" y2="271.7"/>
				</g>
				<g>
					<path class="st45" d="M841.5,275.7L841.5,275.7c-0.5-0.3-0.7-0.9-0.4-1.4l5.5-9.5c0.3-0.5,0.9-0.7,1.4-0.4l0,0
						c0.5,0.3,0.7,0.9,0.4,1.4l-5.5,9.5C842.7,275.8,842.1,276,841.5,275.7z"/>
					<line class="st43" x1="846.6" y1="266.9" x2="843.2" y2="272.9"/>
				</g>
				<g>
					<path class="st45" d="M844.8,276.6L844.8,276.6c-0.6,0-1.1-0.5-1.1-1.1v-10.9c0-0.6,0.5-1.1,1.1-1.1l0,0c0.6,0,1.1,0.5,1.1,1.1
						v10.9C845.9,276.1,845.4,276.6,844.8,276.6z"/>
					<line class="st43" x1="844.8" y1="266.4" x2="844.8" y2="273.3"/>
				</g>
				<circle class="st44" cx="844.9" cy="270" r="1.8"/>
			</g>
			<g>
				<g>
					<path class="st46" d="M902.5,292.9L902.5,292.9c-0.5,0.3-1.2,0.1-1.4-0.4l-5.5-9.5c-0.3-0.5-0.1-1.2,0.4-1.4l0,0
						c0.5-0.3,1.2-0.1,1.4,0.4l5.5,9.5C903.2,291.9,903,292.6,902.5,292.9z"/>
					<line class="st43" x1="897.4" y1="284.1" x2="900.9" y2="290.1"/>
				</g>
				<g>
					<path class="st46" d="M904.9,290.5L904.9,290.5c-0.3,0.5-0.9,0.7-1.4,0.4l-9.5-5.5c-0.5-0.3-0.7-0.9-0.4-1.4l0,0
						c0.3-0.5,0.9-0.7,1.4-0.4l9.5,5.5C905,289.3,905.2,290,904.9,290.5z"/>
					<line class="st43" x1="896.1" y1="285.4" x2="902.1" y2="288.9"/>
				</g>
				<g>
					<path class="st46" d="M892.7,287.2L892.7,287.2c0-0.6,0.5-1.1,1.1-1.1h10.9c0.6,0,1.1,0.5,1.1,1.1l0,0c0,0.6-0.5,1.1-1.1,1.1
						h-10.9C893.2,288.3,892.7,287.8,892.7,287.2z"/>
					<line class="st43" x1="902.8" y1="287.2" x2="895.9" y2="287.2"/>
				</g>
				<g>
					<path class="st46" d="M893.6,290.5L893.6,290.5c-0.3-0.5-0.1-1.2,0.4-1.4l9.5-5.5c0.5-0.3,1.2-0.1,1.4,0.4l0,0
						c0.3,0.5,0.1,1.2-0.4,1.4l-9.5,5.5C894.5,291.2,893.9,291,893.6,290.5z"/>
					<line class="st43" x1="902.3" y1="285.4" x2="896.4" y2="288.9"/>
				</g>
				<g>
					<path class="st46" d="M896,292.9L896,292.9c-0.5-0.3-0.7-0.9-0.4-1.4l5.5-9.5c0.3-0.5,0.9-0.7,1.4-0.4l0,0
						c0.5,0.3,0.7,0.9,0.4,1.4l-5.5,9.5C897.1,293,896.5,293.2,896,292.9z"/>
					<line class="st43" x1="901" y1="284.1" x2="897.6" y2="290.1"/>
				</g>
				<g>
					<path class="st46" d="M899.2,293.7L899.2,293.7c-0.6,0-1.1-0.5-1.1-1.1v-10.9c0-0.6,0.5-1.1,1.1-1.1l0,0c0.6,0,1.1,0.5,1.1,1.1
						v10.9C900.3,293.3,899.8,293.7,899.2,293.7z"/>
					<line class="st43" x1="899.2" y1="283.6" x2="899.2" y2="290.5"/>
				</g>
				<circle class="st44" cx="899.3" cy="287.2" r="1.8"/>
			</g>
		</g>
	</g>
	<g>
		<path class="st41" d="M890.7,334c0.6,0.8,0.6,0.8,5,0.5c-0.4,1-1.3,1.4-2.2,1.4c-0.9,0-1.9,0-2.8-0.3c-0.8-0.3-1.6-0.9-2.6-1.6
			c0.2,1.2,0.4,2.1,0.6,3.1c-0.1,0-0.2,0.1-0.3,0.1c-0.3-0.7-0.5-1.4-0.9-2.1c-0.2-0.4-0.6-0.6-0.9-0.9c-0.3,0.4-0.8,0.7-0.9,1.1
			c-0.3,0.9-0.3,1.9-0.5,2.8c-0.1,0-0.3,0-0.4-0.1c0.1-0.8,0.1-1.6,0.2-2.3c0-0.6,0-1.1-0.8-1.3c-0.8-0.2-1,0.4-1.2,0.9
			c-0.4,0.8-0.7,1.7-1,2.6c-0.1,0-0.2-0.1-0.3-0.1c0.2-0.8,0.5-1.6,0.7-2.5c0.1-0.4-0.1-0.9-0.2-1.4c-0.5,0.2-1,0.2-1.3,0.5
			c-0.7,0.7-1.2,1.4-2,2.4c0-0.6-0.1-0.9,0-1.2c0.7-1.2,1.4-2.4,2.2-3.5c0.2-0.2,0.8-0.3,1-0.2c5.1,2.3,9.8,1.4,14.1-2
			c0.1-0.1,0.2-0.3,0.4-0.4c0,1.3-0.8,2.6-2.2,3.2C893.3,333.3,892,333.6,890.7,334z"/>
		<path class="st41" d="M852.2,330.3c-1.3-1.4,0.2-3.9-2.4-4.4c-0.3,1.3-0.7,2.6-1,3.9c-0.1,0-0.2,0-0.4-0.1
			c0.1-0.8,0.2-1.6,0.3-2.5c0.1-0.7,0.3-1.5-0.7-1.7c-0.9-0.2-1.2,0.5-1.5,1.2c-0.3,0.7-0.5,1.4-0.7,2c-0.2,0-0.3-0.1-0.5-0.1
			c0.2-0.7,0.5-1.3,0.5-2c0.1-0.8,0.1-1.6,0.1-2.5c-0.7,0.3-1.4,0.7-2.1,1c-0.4,0.2-0.8,0.6-1.1,0.9c-0.1-0.1-0.1-0.1-0.2-0.2
			c0.7-0.8,1.4-1.6,2.3-2.7c-0.9,0.1-1.4,0.1-1.9,0.2c-1.7,0.3-3.2-0.2-4.4-1.3c-0.5-0.5-0.8-1.2-1.1-2c1.7,0.7,2.9,2.6,5.5,1.9
			c-3-1.7-4.5-3.9-4.2-7.1c0.1-0.1,0.2-0.1,0.3-0.2c0.1,0.3,0.1,0.5,0.2,0.8c1.6,4.6,5.3,7,9.6,8.6c0.6,0.2,1.4,0.1,2.1,0.1
			c0.7,0,1.1,0.2,1.1,1c0,1.3,0.2,2.6,0.3,3.9C852.4,329.3,852.3,329.7,852.2,330.3z"/>
	</g>
</g>
<rect x="321.5" y="118.2" class="st47" width="318.9" height="74.5"/>
<text transform="matrix(1 0 0 1 393.7834 169.5033)" class="st48 st49 st50">MITÃ</text>
</svg>
